<svg height="60pt" viewBox="-6 0 60 60" width="60pt" xmlns="http://www.w3.org/2000/svg"><path d="m37 9h-22v14h22zm-2 12h-18v-10h18zm0 0"/><path d="m19 13h14v2h-14zm0 0"/><path d="m19 17h4v2h-4zm0 0"/><path d="m25 17h8v2h-8zm0 0"/><path d="m47 2v-2h-47v60h47v-55h-2v-3zm-45 56v-51h3v51zm43 0h-38v-51h38zm-43-53v-3h41v3zm0 0"/><path d="m11 44v-6h6v6h2v-9c0-2.761719-2.238281-5-5-5s-5 2.238281-5 5v9zm3-12c1.65625 0 3 1.34375 3 3v1h-6v-1c0-1.65625 1.34375-3 3-3zm0 0"/><path d="m31 34c0-2.210938-1.789062-4-4-4h-6v14h6c1.667969.007812 3.164062-1.023438 3.75-2.585938.582031-1.5625.132812-3.324218-1.132812-4.414062.875-.753906 1.378906-1.847656 1.382812-3zm-2 6c0 1.105469-.894531 2-2 2h-4v-4h4c1.105469 0 2 .894531 2 2zm-6-4v-4h4c1.105469 0 2 .894531 2 2s-.894531 2-2 2zm0 0"/><path d="m33 35v4c0 2.761719 2.238281 5 5 5s5-2.238281 5-5h-2c0 1.65625-1.34375 3-3 3s-3-1.34375-3-3v-4c0-1.65625 1.34375-3 3-3s3 1.34375 3 3h2c0-2.761719-2.238281-5-5-5s-5 2.238281-5 5zm0 0"/></svg>