<svg height="512pt" viewBox="0 0 512 512" width="512pt" xmlns="http://www.w3.org/2000/svg"><path d="m256.351562 197.210938c-14.859374 0-28.882812 5.730468-39.488281 16.136718s-16.601562 24.316406-16.886719 39.230469l-.007812 32.210937h-21.46875v30h155v-30h-20.765625v-31.195312c0-31.089844-25.292969-56.382812-56.382813-56.382812zm-26.378906 87.578124v-31.695312c.269532-14.273438 12.105469-25.882812 26.378906-25.882812 14.546876 0 26.382813 11.835937 26.382813 26.382812v31.195312zm0 0"/><path d="m236.332031 373h36v30h-36zm0 0"/><path d="m482 174v38h-82.84375v-48.519531h44.335938v-163.480469h-102.347657v66.984375h-33.96875v-66.984375h-102.351562v66.984375h-33.964844v-66.984375h-102.351563v163.480469h44.335938v48.519531h-82.84375v-38h-30v338h30v-270h82.84375v270h30v-109h71.421875v-30h-71.421875v-209.519531h226.3125v276.519531h-66.820312v30h66.820312v42h30v-270h82.84375v270h30v-338zm-110.855469-144h42.347657v36.984375h-42.347657zm-136.320312 0h42.351562v36.984375h-42.351562zm-136.316407 0h42.351563v36.984375h-42.351563zm0 103.480469v-36.496094h314.984376v36.496094zm0 0"/><path d="m56.609375 268.542969h29.871094v29.871093h-29.871094zm0 0"/><path d="m56.609375 327.210938h29.871094v29.871093h-29.871094zm0 0"/><path d="m56.609375 385.878906h29.871094v29.871094h-29.871094zm0 0"/><path d="m425.519531 268.542969h29.871094v29.871093h-29.871094zm0 0"/><path d="m425.519531 327.210938h29.871094v29.871093h-29.871094zm0 0"/><path d="m425.519531 385.878906h29.871094v29.871094h-29.871094zm0 0"/></svg>