<svg height="480pt" viewBox="-40 0 480 480" width="480pt" xmlns="http://www.w3.org/2000/svg"><path d="m8 336h84.902344l-44.488282 133.472656c-.808593 2.4375-.402343 5.117188 1.101563 7.203125 1.5 2.085938 3.914063 3.324219 6.484375 3.324219h32c3.441406-.003906 6.496094-2.207031 7.585938-5.472656l46.175781-138.527344h34.238281v136c0 4.417969 3.582031 8 8 8h32c4.417969 0 8-3.582031 8-8v-136h34.238281l46.175781 138.527344c1.089844 3.265625 4.144532 5.46875 7.585938 5.472656h32c2.570312 0 4.984375-1.238281 6.484375-3.324219 1.503906-2.085937 1.910156-4.765625 1.101563-7.203125l-44.488282-133.472656h84.902344c4.417969 0 8-3.582031 8-8v-272c0-4.417969-3.582031-8-8-8h-168v-40c0-4.417969-3.582031-8-8-8h-32c-4.417969 0-8 3.582031-8 8v40h-168c-4.417969 0-8 3.582031-8 8v272c0 4.417969 3.582031 8 8 8zm74.230469 128h-15.125l42.664062-128h15.125zm125.769531 0h-16v-128h16zm124.894531 0h-15.125l-42.664062-128h15.125zm-140.894531-448h16v32h-16zm-176 48h368v178.070312l-84-48.980468c-2.917969-1.691406-6.582031-1.371094-9.160156.796875l-42.167969 35.144531-108.433594-67.816406c-2.59375-1.621094-5.882812-1.621094-8.476562 0l-115.761719 72.386718zm0 188.433594 120-75 109.136719 68.207031c2.929687 1.828125 6.703125 1.570313 9.359375-.640625l42.320312-35.265625 87.183594 50.859375v27.40625h-368zm0 51.566406h368v16h-368zm0 0"/><path d="m232 176c22.089844 0 40-17.910156 40-40s-17.910156-40-40-40-40 17.910156-40 40c.027344 22.082031 17.917969 39.972656 40 40zm0-64c13.253906 0 24 10.746094 24 24s-10.746094 24-24 24-24-10.746094-24-24 10.746094-24 24-24zm0 0"/><path d="m32 80h16v16h-16zm0 0"/><path d="m32 112h16v48h-16zm0 0"/><path d="m67.84375 241.144531 56.011719-33.972656 8.296875 13.683594-56.011719 33.972656zm0 0"/><path d="m277.792969 251.921875 21.003906-17.988281 10.410156 12.148437-21.003906 17.992188zm0 0"/></svg>