<svg height="512pt" viewBox="0 0 512 512" width="512pt" xmlns="http://www.w3.org/2000/svg"><path d="m477.566406 0h-443.132812c-18.988282 0-34.433594 15.445312-34.433594 34.433594v8.964844c0 4.136718 3.351562 7.484374 7.484375 7.484374s7.484375-3.351562 7.484375-7.484374v-8.964844c0-10.730469 8.730469-19.460938 19.464844-19.460938h443.132812c10.730469 0 19.460938 8.730469 19.460938 19.460938v443.132812c0 10.734375-8.726563 19.464844-19.460938 19.464844h-68.820312c-4.132813 0-7.484375 3.351562-7.484375 7.484375s3.351562 7.484375 7.484375 7.484375h68.820312c18.988282 0 34.433594-15.445312 34.433594-34.433594v-443.132812c0-18.988282-15.445312-34.433594-34.433594-34.433594zm0 0"/><path d="m370.785156 497.027344h-336.351562c-10.730469 0-19.460938-8.730469-19.460938-19.460938v-399.234375c0-4.136719-3.351562-7.484375-7.488281-7.484375-4.132813 0-7.484375 3.347656-7.484375 7.484375v399.234375c0 18.988282 15.445312 34.433594 34.433594 34.433594h336.351562c4.132813 0 7.484375-3.351562 7.484375-7.484375s-3.351562-7.488281-7.484375-7.488281zm0 0"/><path d="m340.210938 40.171875h-64.25c-15.132813 0-27.445313 12.3125-27.445313 27.445313v76.726562h-180.898437c-15.132813 0-27.445313 12.3125-27.445313 27.445312v168.421876c0 15.132812 12.3125 27.445312 27.445313 27.445312h64.25c15.136718 0 27.445312-12.3125 27.445312-27.445312v-76.726563h89.203125v180.898437c0 15.132813 12.3125 27.445313 27.445313 27.445313h64.25c15.132812 0 27.445312-12.3125 27.445312-27.445313v-180.898437h76.726562c15.132813 0 27.445313-12.3125 27.445313-27.445313v-64.25c0-15.132812-12.3125-27.445312-27.445313-27.445312h-76.726562v-76.726562c0-15.132813-12.3125-27.445313-27.445312-27.445313zm12.476562 312.515625h-89.203125v-89.203125h89.203125zm-89.203125-104.171875v-89.203125h89.203125v89.203125zm0-180.898437c0-6.878907 5.597656-12.476563 12.476563-12.476563h64.25c6.878906 0 12.476562 5.597656 12.476562 12.476563v76.726562h-89.203125zm-208.34375 104.171874c0-6.878906 5.597656-12.476562 12.476563-12.476562h76.726562v89.203125h-89.203125zm89.203125 168.421876c0 6.878906-5.597656 12.476562-12.476562 12.476562h-64.25c-6.878907 0-12.476563-5.597656-12.476563-12.476562v-76.726563h89.203125zm14.96875-180.898438h89.203125v89.203125h-89.203125zm193.375 285.070312c0 6.878907-5.597656 12.476563-12.476562 12.476563h-64.25c-6.878907 0-12.476563-5.597656-12.476563-12.476563v-76.726562h89.199219v76.726562zm104.171875-272.59375v64.25c0 6.878907-5.597656 12.476563-12.476563 12.476563h-76.726562v-89.203125h76.726562c6.878907 0 12.476563 5.597656 12.476563 12.476562zm0 0"/><path d="m404.933594 231.75h21.84375c2.621094 0 3.335937-2.382812 3.335937-4.765625s-.632812-4.765625-3.335937-4.765625h-17.710938c-.953125 0-1.351562-.320312-1.351562-1.351562v-13.105469h16.125c2.621094 0 3.335937-2.382813 3.335937-4.769531 0-2.382813-.714843-4.765626-3.335937-4.765626h-16.125v-11.199218c0-1.03125.398437-1.347656 1.351562-1.347656h17.710938c2.703125 0 3.335937-2.382813 3.335937-4.769532 0-2.382812-.714843-4.765625-3.335937-4.765625h-21.84375c-3.96875 0-7.78125 1.035157-7.78125 6.992188v41.621093c0 5.957032 3.8125 6.992188 7.78125 6.992188zm0 0"/><path d="m210.03125 179.34375c-.953125-2.859375-3.496094-3.972656-6.117188-3.972656-2.621093 0-5.160156 1.113281-6.113281 3.972656l-16.445312 49.246094c-1.113281 3.257812 2.144531 3.734375 4.765625 3.734375s4.847656-.398438 5.957031-3.734375l3.097656-9.53125h17.476563l3.097656 9.53125c1.113281 3.335937 3.335938 3.734375 5.957031 3.734375 2.621094 0 5.878907-.476563 4.765625-3.734375zm-11.757812 30.421875 3.816406-11.597656c1.03125-3.175781 1.347656-4.445313 1.824218-7.625.476563 3.179687.796876 4.449219 1.828126 7.625l3.8125 11.597656zm0 0"/><path d="m325.917969 175.722656c-2.144531 0-3.496094.636719-4.527344 2.144532-1.269531 1.984374-13.265625 25.335937-13.265625 25.335937s-11.992188-23.351563-13.34375-25.335937c-1.03125-1.507813-2.382812-2.144532-4.449219-2.144532-2.542969 0-5.003906.953125-5.003906 3.8125v49.167969c0 2.941406 2.621094 3.734375 5.085937 3.734375 2.460938 0 5.160157-.792969 5.160157-3.734375v-32.167969c.796875 2.304688 1.988281 4.765625 3.019531 6.832032l6.039062 12.074218c.714844 1.347656 2.0625 1.824219 3.496094 1.824219 1.347656 0 2.699219-.476563 3.414063-1.824219l6.117187-12.074218c.953125-2.066407 2.222656-4.527344 2.9375-6.832032v32.167969c0 2.941406 2.699219 3.734375 5.164063 3.734375 2.460937 0 5.082031-.792969 5.082031-3.734375v-49.167969c0-2.859375-2.382812-3.8125-4.925781-3.8125zm0 0"/><path d="m113.117188 200.855469h-11.277344c-2.464844 0-3.179688 2.222656-3.179688 4.449219 0 2.222656.636719 4.527343 3.179688 4.527343h6.113281c1.828125 0 2.304687.636719 2.226563 2.621094-.160157 3.8125-1.351563 10.800781-10.484376 10.800781-10.167968 0-11.28125-12.390625-11.28125-19.378906 0-8.339844 1.351563-19.304688 11.28125-19.304688 5.320313 0 7.703126 2.542969 8.894532 7.070313.554687 2.066406 1.90625 2.9375 6.355468 2.9375 4.050782 0 5.082032-2.222656 4.605469-4.765625-1.824219-9.371094-8.738281-14.535156-19.855469-14.535156-16.207031.875-22.164062 12.390625-22.164062 28.597656 0 15.886719 6.277344 28.675781 22.558594 28.675781 15.488281 0 20.96875-11.203125 20.414062-24.863281-.15625-4.289062-1.589844-6.832031-7.386718-6.832031zm0 0"/></svg>